<svg xmlns="http://www.w3.org/2000/svg" width="512" height="512" viewBox="0 0 512 512" fill="none">
<rect width="512" height="512" fill="#1E1E1E"/>
<rect width="512" height="512" fill="white"/>
<rect width="512" height="512" fill="#767680" fill-opacity="0.12"/>
<g>
<path d="M185.253 355.891C171.358 355.891 158.946 353.482 148.015 348.665C137.085 343.663 128.47 336.16 122.171 326.156C115.872 315.967 112.723 303.091 112.723 287.529V282.249H130.508V287.529C130.508 305.499 135.602 318.838 145.792 327.545C156.167 336.067 169.32 340.328 185.253 340.328C201.371 340.328 213.783 336.623 222.49 329.213C231.198 321.617 235.551 311.983 235.551 300.312C235.551 292.531 233.606 286.325 229.716 281.693C226.01 276.876 220.73 273.078 213.876 270.299C207.206 267.335 199.425 264.742 190.533 262.518L172.748 258.072C162.188 255.293 152.739 251.866 144.402 247.79C136.066 243.529 129.489 238.064 124.672 231.394C119.855 224.54 117.447 215.832 117.447 205.272C117.447 194.712 120.133 185.542 125.506 177.761C131.064 169.98 138.659 164.052 148.293 159.976C157.927 155.715 169.135 153.584 181.918 153.584C194.701 153.584 206.187 155.807 216.377 160.254C226.751 164.7 234.903 171.277 240.831 179.984C246.945 188.506 250.002 199.251 250.002 212.22V225.281H232.217V212.22C232.217 202.03 229.994 193.786 225.547 187.487C221.101 181.188 215.08 176.557 207.484 173.593C199.888 170.628 191.366 169.146 181.918 169.146C168.394 169.146 157.186 172.296 148.293 178.595C139.586 184.708 135.232 193.601 135.232 205.272C135.232 213.053 136.992 219.26 140.512 223.891C144.217 228.523 149.312 232.228 155.796 235.007C162.466 237.786 170.247 240.287 179.139 242.51L196.924 246.956C207.114 249.365 216.469 252.607 224.992 256.683C233.514 260.573 240.368 266.038 245.556 273.078C250.743 279.933 253.337 289.011 253.337 300.312C253.337 311.613 250.465 321.432 244.722 329.769C239.164 338.105 231.29 344.59 221.101 349.221C210.912 353.667 198.962 355.891 185.253 355.891ZM177.194 384.236V125.239H193.867V384.236H177.194ZM320.045 313.095V262.518H269.747V246.956H320.045V196.38H336.163V246.956H386.462V262.518H336.163V313.095H320.045Z" fill="black"/>
</g>
<defs>










</defs>
</svg>